<svg width="220" height="118" viewBox="0 0 220 118" fill="none" xmlns="http://www.w3.org/2000/svg">
<path d="M90.9922 70V53.2422H93.7461L99.8984 67.2227L105.934 53.2422H108.57V70H106.637V56.2539L100.684 70H98.9727L92.9258 56.2539V70H90.9922ZM111.734 66.2852C111.734 63.7617 113.398 62.5 116.727 62.5C117.797 62.5 118.867 62.5781 119.938 62.7344V61.5742C119.938 60.1602 118.832 59.4531 116.621 59.4531C115.355 59.4531 114.059 59.6484 112.73 60.0391V58.2812C114.059 57.8906 115.355 57.6953 116.621 57.6953C120.277 57.6953 122.105 58.9688 122.105 61.5156V70H120.887L120.137 68.7812C118.91 69.5938 117.574 70 116.129 70C113.199 70 111.734 68.7617 111.734 66.2852ZM116.727 64.2578C114.844 64.2578 113.902 64.9219 113.902 66.25C113.902 67.5781 114.645 68.2422 116.129 68.2422C117.629 68.2422 118.898 67.8438 119.938 67.0469V64.4922C118.867 64.3359 117.797 64.2578 116.727 64.2578ZM125.633 70V57.6953H127.098L127.484 59.2656C128.562 58.2188 129.859 57.6953 131.375 57.6953V59.5C129.906 59.5 128.715 60.0195 127.801 61.0586V70H125.633ZM142.812 69.6484C141.797 69.8828 140.703 70 139.531 70C135.156 70 132.969 67.8711 132.969 63.6133C132.969 59.668 135.156 57.6953 139.531 57.6953C140.703 57.6953 141.797 57.8125 142.812 58.0469V59.8047C141.797 59.5703 140.664 59.4531 139.414 59.4531C136.562 59.4531 135.137 60.8398 135.137 63.6133C135.137 66.6992 136.562 68.2422 139.414 68.2422C140.664 68.2422 141.797 68.125 142.812 67.8906V69.6484ZM156.184 57.6953V70H154.695L154.32 68.4297C152.828 69.4766 151.328 70 149.82 70C146.992 70 145.578 68.4727 145.578 65.418V57.6953H147.746V65.4531C147.746 67.2812 148.652 68.1953 150.465 68.1953C151.707 68.1953 152.891 67.6758 154.016 66.6367V57.6953H156.184ZM159.594 69.4141V67.5391C161.039 68.0078 162.5 68.2422 163.977 68.2422C165.938 68.2422 166.918 67.6562 166.918 66.4844C166.918 65.3906 166.234 64.8438 164.867 64.8438H163.109C160.453 64.8438 159.125 63.6328 159.125 61.2109C159.125 58.8672 160.832 57.6953 164.246 57.6953C165.715 57.6953 167.172 57.8906 168.617 58.2812V60.1562C167.172 59.6875 165.715 59.4531 164.246 59.4531C162.199 59.4531 161.176 60.0391 161.176 61.2109C161.176 62.3047 161.82 62.8516 163.109 62.8516H164.867C167.68 62.8516 169.086 64.0625 169.086 66.4844C169.086 68.8281 167.383 70 163.977 70C162.5 70 161.039 69.8047 159.594 69.4141Z" fill="#084C61"/>
<path d="M48.75 75V41.4844H51.2109L66.3281 72.1172L80.5078 41.4844H82.7344V75H80.5078V46.0078L67.1953 75H65.1797L50.9766 45.7734V75H48.75Z" fill="#084C61"/>
</svg>
