<svg width="755" height="552" viewBox="0 0 755 552" fill="none" xmlns="http://www.w3.org/2000/svg">
<path d="M287.471 306V243.158H297.798L320.869 295.585L343.501 243.158H353.389V306H346.138V254.452L323.813 306H317.397L294.722 254.452V306H287.471ZM365.254 292.069C365.254 282.606 371.494 277.875 383.975 277.875C387.988 277.875 392.002 278.168 396.016 278.754V274.403C396.016 269.101 391.87 266.449 383.579 266.449C378.833 266.449 373.97 267.182 368.989 268.646V262.055C373.97 260.59 378.833 259.857 383.579 259.857C397.29 259.857 404.146 264.633 404.146 274.184V306H399.575L396.763 301.43C392.163 304.477 387.153 306 381.733 306C370.747 306 365.254 301.356 365.254 292.069ZM383.975 284.467C376.914 284.467 373.384 286.957 373.384 291.938C373.384 296.918 376.167 299.408 381.733 299.408C387.358 299.408 392.119 297.914 396.016 294.926V285.346C392.002 284.76 387.988 284.467 383.975 284.467ZM417.373 306V259.857H422.866L424.316 265.746C428.359 261.82 433.223 259.857 438.906 259.857V266.625C433.398 266.625 428.931 268.573 425.503 272.47V306H417.373ZM481.797 304.682C477.988 305.561 473.887 306 469.492 306C453.086 306 444.883 298.017 444.883 282.05C444.883 267.255 453.086 259.857 469.492 259.857C473.887 259.857 477.988 260.297 481.797 261.176V267.768C477.988 266.889 473.74 266.449 469.053 266.449C458.359 266.449 453.013 271.649 453.013 282.05C453.013 293.622 458.359 299.408 469.053 299.408C473.74 299.408 477.988 298.969 481.797 298.09V304.682ZM531.938 259.857V306H526.357L524.951 300.111C519.355 304.037 513.73 306 508.076 306C497.471 306 492.168 300.272 492.168 288.817V259.857H500.298V288.949C500.298 295.805 503.696 299.232 510.493 299.232C515.151 299.232 519.59 297.284 523.809 293.388V259.857H531.938ZM544.727 303.803V296.771C550.146 298.529 555.625 299.408 561.162 299.408C568.516 299.408 572.192 297.211 572.192 292.816C572.192 288.715 569.629 286.664 564.502 286.664H557.91C547.949 286.664 542.969 282.123 542.969 273.041C542.969 264.252 549.37 259.857 562.173 259.857C567.681 259.857 573.145 260.59 578.564 262.055V269.086C573.145 267.328 567.681 266.449 562.173 266.449C554.497 266.449 550.659 268.646 550.659 273.041C550.659 277.143 553.076 279.193 557.91 279.193H564.502C575.049 279.193 580.322 283.734 580.322 292.816C580.322 301.605 573.936 306 561.162 306C555.625 306 550.146 305.268 544.727 303.803Z" fill="#084C61"/>
<path d="M146.406 326V224.057H153.892L199.873 317.231L243.003 224.057H249.775V326H243.003V237.815L202.511 326H196.38L153.179 237.103V326H146.406Z" fill="#084C61"/>
</svg>
