<svg width="1259" height="1405" viewBox="0 0 1259 1405" fill="none" xmlns="http://www.w3.org/2000/svg">
<path fill-rule="evenodd" clip-rule="evenodd" d="M931.823 358.801C973.283 410.977 991.462 475.053 1020.92 534.253C1052.06 596.831 1111.12 653.871 1112.07 721.011C1113.03 788.501 1060.5 838.562 1026.01 892.68C995.553 940.479 964.824 988.72 919.859 1022.63C877.183 1054.82 826.849 1079.7 771.703 1084.48C719.153 1089.04 661.921 1031.15 613.62 1049.19C537.989 1077.43 518.629 1193.04 438.435 1208.93C372.272 1222.05 295.951 1173.39 243.477 1122.55C190.834 1071.54 177.185 994.799 148.654 928.176C123.246 868.847 77.8639 809.832 83.2984 748.513C88.9846 684.354 147.039 644.071 178.566 590.665C201.702 551.476 230.13 516.434 245.882 473.107C264.778 421.134 250.906 355.87 280.546 310.172C310.85 263.45 358.119 223.637 414.102 213.751C470.314 203.825 527.838 253.893 586.1 256.217C652.386 258.862 712.506 208.896 777.775 228.263C840.978 247.017 889.513 305.556 931.823 358.801Z" fill="#EF8BFF"/>
</svg>
