<svg width="442" height="409" viewBox="0 0 442 409" fill="none" xmlns="http://www.w3.org/2000/svg">
<path fill-rule="evenodd" clip-rule="evenodd" d="M368.49 104.159C391.05 117.238 398.528 146.602 392.346 174.707C386.27 202.334 357.019 226.493 336.015 251.822C317.592 274.038 300.364 296.413 276.489 314.415C251.366 333.359 224.01 350.103 195.003 358.147C164.665 366.559 130.513 373.001 108.823 360.907C87.2827 348.897 93.4631 317.168 83.3905 295.913C74.5969 277.358 48.8899 266.726 53.27 243.684C57.6818 220.475 86.035 201.117 105.304 180.635C120.925 164.031 139.936 151.332 155.691 134.813C179.353 110.005 188.973 66.2618 221.182 59.1425C253.052 52.0979 250.801 99.8856 277.204 107.954C303.712 116.055 345.88 91.0514 368.49 104.159Z" fill="#77FF85"/>
</svg>
