<svg width="481" height="494" viewBox="0 0 481 494" fill="none" xmlns="http://www.w3.org/2000/svg">
<path fill-rule="evenodd" clip-rule="evenodd" d="M159.479 79.7345C196.464 72.3343 227.468 101.001 263.993 107.658C300.012 114.222 344.356 94.7444 371.063 118.295C397.812 141.884 384.496 185.267 391.429 220.038C399.366 259.842 429.293 297.639 414.581 336.545C399.31 376.929 358.395 407.876 315.77 420.121C275.613 431.657 236.858 409.843 197.499 398.907C162.769 389.258 122.352 387.213 100.046 360.184C78.1789 333.688 90.2629 294.663 83.6605 260.969C76.101 222.392 43.0378 185.985 58.6144 148.751C74.3408 111.159 118.589 87.916 159.479 79.7345Z" fill="#72DDFF"/>
</svg>
