<svg width="629" height="630" viewBox="0 0 629 630" fill="none" xmlns="http://www.w3.org/2000/svg">
<path fill-rule="evenodd" clip-rule="evenodd" d="M474.036 169.136C493.729 193.617 503.354 222.894 517.879 250.247C533.233 279.161 560.867 306.254 562.905 336.496C564.954 366.895 542.796 388.165 528.759 411.693C516.361 432.475 503.855 453.449 484.673 467.633C466.467 481.094 444.68 491.083 420.27 491.909C397.009 492.697 370.164 465.267 349.116 472.224C316.16 483.117 310.329 534.685 275.046 539.911C245.936 544.223 210.824 520.488 186.265 496.344C161.627 472.122 153.712 437.252 139.422 406.58C126.696 379.265 105.094 351.613 106.037 324.144C107.023 295.403 131.874 278.668 144.611 255.389C153.958 238.306 165.759 223.218 171.723 204.095C178.877 181.157 171.139 151.449 183.223 131.593C195.577 111.292 215.641 94.5091 240.302 91.4055C265.062 88.2892 291.849 112.207 317.816 114.654C347.359 117.437 372.895 96.3935 402.388 106.679C430.947 116.639 453.94 144.154 474.036 169.136Z" fill="#EF8BFF"/>
</svg>
